<svg width="49" height="46" viewBox="0 0 49 46" fill="none" xmlns="http://www.w3.org/2000/svg"><path fill-rule="evenodd" clip-rule="evenodd" d="M23.904 26.136c.56-.56 1.468-.56 2.028 0l9.007 9.003c.56.56.56 1.468 0 2.027l-.46.461-.048.045c-5.426 4.952-13.79 4.928-19.2-.067a1.395 1.395 0 01-.041-.04l-.346-.346a1.433 1.433 0 010-2.026l9.06-9.057zm1.014 3.04l-6.974 6.971c4.088 3.155 9.844 3.139 13.905-.043l-6.931-6.928z" fill="url(#paint0_linear_260_277)"/><path fill-rule="evenodd" clip-rule="evenodd" d="M34.591 7.649l.041.039.335.334c.56.56.56 1.467 0 2.027L20.928 24.082l-.047.045c-5.427 4.951-13.79 4.927-19.2-.067a1.488 1.488 0 01-.042-.04l-.346-.346a1.433 1.433 0 010-2.027L15.35 7.597a.66.66 0 01.047-.044c5.43-4.956 13.79-4.895 19.195.096zm-2.726 1.447C27.56 5.78 21.42 5.957 17.353 9.649L4.393 22.602c4.303 3.32 10.455 3.128 14.531-.571l12.94-12.935z" fill="url(#paint1_linear_260_277)"/><path fill-rule="evenodd" clip-rule="evenodd" d="M15.272 7.622a1.607 1.607 0 00-.041.04l-.334.333c-.56.56-.56 1.468 0 2.027l14.038 14.033.047.045c5.427 4.951 13.79 4.927 19.2-.067l.042-.04.346-.345c.56-.56.56-1.468 0-2.028L34.515 7.57a1.428 1.428 0 00-.048-.044c-5.43-4.956-13.79-4.895-19.195.096zm2.726 1.447c4.305-3.316 10.444-3.139 14.513.553l12.958 12.953c-4.302 3.32-10.453 3.128-14.53-.57L17.999 9.068z" fill="url(#paint2_linear_260_277)"/><defs><linearGradient id="paint0_linear_260_277" x1="38.787" y1="-.74" x2="20.373" y2="40.713" gradientUnits="userSpaceOnUse"><stop stop-color="#0CF1D7"/><stop offset=".562" stop-color="#114EF7"/><stop offset=".888" stop-color="#A91BFF"/><stop offset="1" stop-color="#FC7541"/></linearGradient><linearGradient id="paint1_linear_260_277" x1="36.619" y1=".032" x2="21.544" y2="41.254" gradientUnits="userSpaceOnUse"><stop stop-color="#0CF1D7"/><stop offset=".551" stop-color="#114EF7"/><stop offset=".861" stop-color="#A91BFF"/><stop offset="1" stop-color="#FC7541"/></linearGradient><linearGradient id="paint2_linear_260_277" x1="37.341" y1=".005" x2="22.797" y2="41.254" gradientUnits="userSpaceOnUse"><stop stop-color="#0CF1D7"/><stop offset=".54" stop-color="#114EF7"/><stop offset=".856" stop-color="#A91BFF"/><stop offset="1" stop-color="#FC7541"/></linearGradient></defs></svg>